<svg width="872" height="65" viewBox="0 0 872 65" fill="none" xmlns="http://www.w3.org/2000/svg">
<rect width="872" height="65" fill="black" fill-opacity="0"/>
<mask id="mask0" mask-type="alpha" maskUnits="userSpaceOnUse" x="0" y="0" width="872" height="65">
<rect width="872" height="65" fill="#C4C4C4"/>
</mask>
<g mask="url(#mask0)">
<rect width="1200" height="5.1" fill="black" fill-opacity="0" transform="translate(-237 29)"/>
<rect width="1200" height="5.1" fill="black" fill-opacity="0" transform="translate(-237 29)"/>
<path d="M581.108 34C580.977 34 580.911 34 580.78 34H580.649C579.402 33.8 578.549 32.8 578.746 31.7C578.943 30.7 579.927 30 581.108 30L584.126 29.6L586.292 29.3C587.539 29.1 588.72 29.8 588.916 30.9C589.113 32 588.326 33 587.079 33.2L584.848 33.5L581.436 33.9C581.305 34 581.239 34 581.108 34ZM633.798 34C633.601 34 633.404 34 633.208 33.9L631.436 33.5C630.189 33.2 629.468 32.1 629.796 31C630.124 29.9 631.37 29.3 632.617 29.6L633.93 29.9L636.751 29.5C636.948 29.5 637.145 29.5 637.276 29.5H637.801C639.048 29.6 639.966 30.6 639.901 31.7C639.835 32.8 638.719 33.6 637.407 33.5H637.145L634.126 33.9C634.061 34 633.929 34 633.798 34ZM429.731 34C429.599 34 429.468 34 429.402 34L427.893 33.8C426.647 33.6 425.794 32.6 425.99 31.5C426.187 30.4 427.368 29.7 428.615 29.8L429.731 30L432.618 29.5C432.815 29.5 433.011 29.5 433.208 29.5L434.061 29.6C435.308 29.7 436.227 30.7 436.161 31.8C436.03 32.9 434.914 33.7 433.668 33.6H433.143L430.124 34.1C429.993 34 429.862 34 429.731 34ZM837.997 34C837.866 34 837.735 34 837.603 34L835.766 33.7C834.52 33.5 833.667 32.5 833.863 31.4C834.06 30.3 835.241 29.6 836.488 29.8L837.866 30L840.688 29.4C840.819 29.4 840.95 29.4 841.081 29.3H841.54C842.787 29.2 843.903 30.1 843.968 31.2C844.034 32.3 843.05 33.2 841.803 33.3H841.54L838.457 34C838.325 34 838.194 34 837.997 34ZM-11.0163 34C-11.082 34 -11.2132 34 -11.2788 34L-14.3628 33.7C-15.6095 33.6 -16.5281 32.6 -16.3969 31.5C-16.2657 30.4 -15.1502 29.6 -13.8379 29.7L-11.0163 30L-8.65414 29.8C-7.40742 29.7 -6.29195 30.5 -6.16072 31.6C-6.02948 32.7 -6.9481 33.7 -8.19482 33.8L-10.8195 34C-10.8195 34 -10.9507 34 -11.0163 34ZM785.307 34C785.241 34 785.11 34 785.045 34H784.782C783.535 33.9 782.617 32.9 782.814 31.8C782.945 30.7 784.06 30 785.307 30.1L788.26 29.7C788.391 29.7 788.522 29.7 788.653 29.7H790.819C792.066 29.7 793.115 30.6 793.05 31.7C792.984 32.8 792 33.7 790.753 33.7H788.785L785.701 34.1C785.504 34 785.373 34 785.307 34ZM870.937 33.9C870.806 33.9 870.674 33.9 870.543 33.9L869.821 33.8C868.575 33.6 867.722 32.6 867.918 31.5C868.115 30.4 869.296 29.7 870.543 29.8H870.74L873.561 29.1C873.824 29 874.152 29 874.414 29L875.924 29.1C877.17 29.2 878.089 30.2 878.023 31.3C877.892 32.4 876.777 33.2 875.53 33.1L874.48 33L871.593 33.8C871.396 33.9 871.199 33.9 870.937 33.9ZM-63.6409 33.9C-63.8377 33.9 -64.1002 33.9 -64.297 33.8L-65.5438 33.5C-66.7249 33.2 -67.4466 32.1 -67.0529 31C-66.6592 29.9 -65.4125 29.3 -64.1658 29.7L-63.5096 29.9L-60.8194 29.3C-60.4913 29.2 -60.1632 29.2 -59.8351 29.3L-58.7852 29.5C-57.5385 29.7 -56.7511 30.8 -56.948 31.8C-57.2104 32.9 -58.3916 33.6 -59.6383 33.4L-60.1632 33.3L-63.1159 33.9C-63.3128 33.9 -63.444 33.9 -63.6409 33.9ZM907.223 33.9C907.157 33.9 907.157 33.9 907.091 33.9L903.942 33.8C902.695 33.7 901.711 32.8 901.776 31.7C901.842 30.6 902.958 29.7 904.204 29.8L907.026 29.9L909.191 29.4C910.438 29.1 911.685 29.8 911.947 30.9C912.275 32 911.488 33.1 910.241 33.3L907.748 33.8C907.551 33.9 907.42 33.9 907.223 33.9ZM229.075 33.9C229.009 33.9 228.878 33.9 228.812 33.9L225.663 33.5H224.022C222.776 33.5 221.726 32.6 221.726 31.5C221.726 30.4 222.776 29.5 224.022 29.5H225.794C225.925 29.5 225.991 29.5 226.122 29.5L229.206 29.8H229.665C230.978 29.8 231.962 30.6 232.028 31.7C232.093 32.8 231.109 33.7 229.797 33.8H229.206C229.141 33.9 229.141 33.9 229.075 33.9ZM278.419 33.9C278.222 33.9 278.091 33.9 277.894 33.8L274.744 33.2C273.497 33 272.776 31.9 273.038 30.8C273.3 29.7 274.547 29.1 275.794 29.3L278.419 29.8L280.321 29.4C281.568 29.2 282.749 29.8 283.077 30.9C283.34 32 282.552 33 281.306 33.3L278.878 33.8C278.747 33.9 278.615 33.9 278.419 33.9ZM819.165 33.9C817.984 33.9 816.934 33.1 816.869 32C816.803 30.9 817.722 29.9 819.034 29.9L821.331 29.8L824.546 29.5C824.677 29.5 824.808 29.5 825.005 29.5C826.252 29.6 827.236 30.5 827.105 31.6C827.039 32.6 826.055 33.4 824.939 33.5L821.79 33.8C821.724 33.8 821.724 33.8 821.659 33.8L819.297 33.9C819.231 33.9 819.231 33.9 819.165 33.9ZM294.888 33.9C294.692 33.9 294.56 33.9 294.363 33.8L291.673 33.3C290.426 33.1 289.705 32 289.967 30.9C290.23 29.8 291.476 29.2 292.723 29.4L294.888 29.8L297.251 29.3C298.497 29 299.744 29.7 300.006 30.8C300.269 31.9 299.547 33 298.3 33.2L295.413 33.8C295.216 33.9 295.02 33.9 294.888 33.9ZM212.671 33.9C212.474 33.9 212.211 33.9 212.015 33.8L209.062 33.1H207.159C205.912 33.1 204.862 32.2 204.862 31.1C204.862 30 205.847 29.1 207.159 29.1H209.39C209.587 29.1 209.849 29.1 210.046 29.2L213.261 30C214.18 30.2 214.902 30.9 215.033 31.7C215.164 32.8 214.311 33.8 213.064 33.9C212.868 33.9 212.802 33.9 212.671 33.9ZM394.166 33.9C393.051 33.9 392.067 33.2 391.935 32.2C391.739 31.1 392.657 30.1 393.904 29.9L396.594 29.6C396.66 29.6 396.725 29.6 396.857 29.6L399.875 29.5C401.122 29.4 402.172 30.3 402.237 31.4C402.303 32.5 401.319 33.4 400.006 33.5L397.119 33.6L394.56 33.9C394.363 33.9 394.232 33.9 394.166 33.9ZM854.467 33.9C854.401 33.9 854.336 33.9 854.27 33.9L852.958 33.8C851.711 33.7 850.727 32.8 850.858 31.7C850.924 30.6 852.039 29.8 853.286 29.8L854.467 29.9L857.616 29.7C857.748 29.7 857.813 29.7 857.945 29.7L859.06 29.8C860.307 29.9 861.225 30.9 861.16 32C861.029 33.1 859.979 33.9 858.667 33.8L857.748 33.7L854.598 33.9C854.533 33.9 854.533 33.9 854.467 33.9ZM140.361 33.9C140.296 33.9 140.23 33.9 140.164 33.9L138.852 33.8C137.605 33.7 136.687 32.7 136.818 31.6C136.949 30.5 138.065 29.7 139.311 29.8L140.23 29.9L143.183 29.3C143.38 29.3 143.576 29.2 143.839 29.3H144.823C146.07 29.4 147.054 30.3 146.988 31.4C146.923 32.5 145.873 33.4 144.561 33.3H143.905L140.952 33.9C140.689 33.9 140.492 33.9 140.361 33.9ZM926.711 33.9C926.58 33.9 926.448 33.9 926.317 33.9L923.758 33.5L921.527 33.9C920.28 34.1 919.099 33.4 918.837 32.3C918.574 31.2 919.427 30.2 920.674 30L923.299 29.6C923.561 29.6 923.824 29.6 924.152 29.6L927.17 30.1C928.417 30.3 929.27 31.3 929.007 32.4C928.745 33.2 927.761 33.9 926.711 33.9ZM666.738 33.9C666.541 33.9 666.344 33.9 666.213 33.8L665.36 33.6C664.113 33.3 663.391 32.3 663.654 31.2C663.982 30.1 665.163 29.5 666.41 29.7L666.935 29.8L671.397 29.6C672.643 29.5 673.759 30.3 673.824 31.4C673.89 32.5 672.971 33.5 671.725 33.5L670.15 33.6L666.803 33.7C666.803 33.9 666.738 33.9 666.738 33.9ZM716.803 33.9C715.688 33.9 714.703 33.2 714.572 32.2C714.375 31.1 715.228 30.1 716.541 29.9L719.165 29.6L722.118 29.1C723.365 28.9 724.546 29.6 724.743 30.7C724.94 31.8 724.152 32.8 722.906 33L719.887 33.5L717.197 33.8C717.066 33.9 716.935 33.9 716.803 33.9ZM87.9991 33.9C86.8181 33.9 85.8338 33.1 85.7025 32.1C85.6369 31 86.5556 30 87.8023 29.9L90.755 29.7L93.511 29.5C94.7577 29.4 95.8731 30.3 95.9388 31.4C96.0044 32.5 95.0858 33.5 93.839 33.5L91.0831 33.7L88.196 33.9C88.1304 33.9 88.0648 33.9 87.9991 33.9ZM25.1384 33.9C24.9416 33.9 24.7447 33.9 24.6135 33.8L21.5295 33.1L19.8891 33C18.6424 33 17.6581 32 17.7238 30.9C17.7894 29.8 18.9048 29 20.0859 29L21.9888 29.1C22.1201 29.1 22.3169 29.1 22.4481 29.2L25.5977 29.9C26.8445 29.9 27.8943 30.8 27.8943 31.9C27.8943 33 26.8445 33.9 25.5977 33.9H25.1384C25.204 33.9 25.204 33.9 25.1384 33.9ZM160.112 33.9C160.046 33.9 159.915 33.9 159.849 33.9L156.765 33.6H156.24C154.994 33.7 153.878 32.9 153.747 31.8C153.616 30.7 154.6 29.7 155.847 29.6L156.634 29.5C156.765 29.5 156.897 29.5 157.093 29.5L159.915 29.8L161.03 29.5C162.212 29.2 163.524 29.8 163.852 30.8C164.18 31.8 163.524 33 162.343 33.3L160.768 33.7C160.506 33.8 160.309 33.9 160.112 33.9ZM479.074 33.9C477.893 33.9 476.843 33.1 476.778 32C476.712 30.9 477.631 30 478.943 29.9L482.093 29.7L484.324 29.3C485.57 29.1 486.751 29.8 487.014 30.9C487.276 32 486.423 33 485.242 33.3L482.88 33.7C482.749 33.7 482.683 33.7 482.552 33.7L479.271 33.9C479.205 33.9 479.14 33.9 479.074 33.9ZM564.638 33.9C564.441 33.9 564.245 33.9 563.982 33.8L563.26 33.6C562.014 33.3 561.357 32.2 561.686 31.1C562.014 30 563.326 29.4 564.507 29.7H564.704L567.46 29.3C567.657 29.3 567.854 29.3 568.05 29.3L569.691 29.4C570.938 29.5 571.856 30.5 571.725 31.6C571.594 32.7 570.478 33.5 569.231 33.4L567.854 33.3L564.835 33.7C564.901 33.8 564.77 33.9 564.638 33.9ZM705.583 33.9C705.452 33.9 705.255 33.9 705.124 33.9L702.696 33.4L699.874 33.3C698.628 33.3 697.643 32.3 697.643 31.2C697.709 30.1 698.824 29.2 700.005 29.3L703.024 29.4C703.155 29.4 703.286 29.4 703.417 29.4L706.042 29.9C707.289 30.1 708.076 31.2 707.814 32.3C707.617 33.2 706.633 33.9 705.583 33.9ZM176.516 33.9C176.385 33.9 176.319 33.9 176.188 33.9L173.104 33.5C171.792 33.6 170.742 32.7 170.676 31.6C170.61 30.5 171.529 29.6 172.841 29.5H173.104C173.235 29.5 173.366 29.5 173.563 29.5L176.647 29.9H178.616H178.681C179.928 29.9 180.912 30.8 180.978 31.9C180.978 33 179.994 33.9 178.747 33.9H176.516ZM512.932 33.8C511.751 33.8 510.767 33 510.636 32C510.505 30.9 511.423 29.9 512.67 29.8L515.032 29.6L518.379 29.4C519.691 29.3 520.741 30.2 520.872 31.2C520.938 32.3 520.085 33.3 518.772 33.3L515.36 33.5L513.129 33.7C513.129 33.8 512.998 33.8 512.932 33.8ZM122.054 33.8C120.873 33.8 119.889 33 119.758 32C119.626 30.9 120.545 29.9 121.857 29.8L123.695 29.7L127.5 29.4C128.747 29.3 129.928 30 130.059 31.1C130.256 32.2 129.338 33.2 128.091 33.3L127.5 33.4C127.435 33.4 127.435 33.4 127.369 33.4L122.317 33.7C122.185 33.8 122.12 33.8 122.054 33.8ZM-214.953 33.8C-215.084 33.8 -215.215 33.8 -215.347 33.8L-218.037 33.4C-219.284 33.2 -220.137 32.2 -219.874 31.1C-219.677 30 -218.496 29.3 -217.249 29.5L-214.822 29.9H-212C-210.753 29.9 -209.703 30.8 -209.703 31.9C-209.703 33 -210.688 33.9 -212 33.9L-214.953 33.8ZM262.014 33.8C261.883 33.8 261.752 33.8 261.621 33.8L258.209 33.3C256.962 33.3 255.912 32.4 255.978 31.3C255.978 30.2 257.028 29.3 258.274 29.3H258.34H258.799C258.93 29.3 258.996 29.3 259.127 29.3L262.211 29.7H263.917C265.164 29.7 266.214 30.5 266.28 31.6C266.345 32.7 265.295 33.6 264.049 33.7L262.014 33.8ZM365.82 33.8C365.754 33.8 365.754 33.8 365.689 33.8L363.851 33.7L360.702 33.5H360.374C359.127 33.6 358.012 32.8 357.88 31.7C357.749 30.6 358.668 29.6 359.914 29.5H360.439C360.571 29.5 360.702 29.5 360.899 29.5L364.18 29.8L365.951 29.9C367.198 30 368.182 30.9 368.117 32C368.051 33 367.001 33.8 365.82 33.8ZM-93.234 33.8C-93.3652 33.8 -93.4964 33.8 -93.6277 33.8L-96.7773 33.3L-98.877 33.2C-100.124 33.1 -101.108 32.2 -101.042 31.1C-100.977 30 -99.8613 29.2 -98.6145 29.2L-96.3836 29.3C-96.3179 29.3 -96.1867 29.3 -96.1211 29.3L-92.9059 29.8C-91.856 29.9 -91.003 30.6 -90.8718 31.6C-90.7405 32.7 -91.5936 33.7 -92.8403 33.8C-93.0371 33.8 -93.1684 33.8 -93.234 33.8ZM739.179 33.8H739.113L733.798 33.6C732.551 33.5 731.567 32.6 731.633 31.5C731.698 30.4 732.814 29.6 734.06 29.6L739.244 29.8H739.572C740.819 29.7 741.934 30.6 742 31.7C742.066 32.8 741.081 33.7 739.835 33.8H739.441C739.31 33.8 739.244 33.8 739.179 33.8ZM-162.328 33.8C-162.525 33.8 -162.656 33.8 -162.853 33.7L-165.806 33.1H-166.528C-167.774 33.2 -168.89 32.4 -168.956 31.3C-169.021 30.2 -168.103 29.2 -166.856 29.2L-165.806 29.1C-165.543 29.1 -165.347 29.1 -165.084 29.1L-162.066 29.7H-161.082H-161.016C-159.769 29.7 -158.785 30.6 -158.719 31.7C-158.719 32.8 -159.704 33.7 -160.95 33.7L-162.328 33.8ZM-149.205 33.8C-149.402 33.8 -149.599 33.8 -149.796 33.7L-150.452 33.6C-151.698 33.3 -152.42 32.2 -152.092 31.2C-151.764 30.2 -150.517 29.5 -149.336 29.8H-149.271L-146.515 29.2C-146.318 29.2 -146.121 29.1 -145.924 29.1H-144.218C-142.971 29.1 -141.987 30 -141.987 31.1C-141.987 32.2 -143.037 33.1 -144.284 33.1H-144.349H-145.727L-148.746 33.7C-148.811 33.7 -149.008 33.8 -149.205 33.8ZM548.169 33.8C548.037 33.8 547.906 33.8 547.84 33.8L546.791 33.7C545.544 33.5 544.691 32.5 544.888 31.4C545.085 30.3 546.266 29.6 547.512 29.7L548.169 29.8L551.056 29.3C551.384 29.2 551.646 29.3 551.974 29.3L553.221 29.5C554.468 29.7 555.255 30.8 554.993 31.9C554.73 33 553.549 33.7 552.302 33.4L551.515 33.3L548.693 33.8C548.497 33.7 548.365 33.8 548.169 33.8ZM-27.4861 33.7C-27.683 33.7 -27.8798 33.7 -28.011 33.6L-30.9638 33C-32.2105 33.1 -33.2604 32.2 -33.326 31.1C-33.3916 30 -32.4073 29.1 -31.1606 29H-30.8326C-30.6357 29 -30.3732 29 -30.1764 29.1L-27.3549 29.7L-25.8457 29.5C-24.599 29.3 -23.4179 30.1 -23.221 31.2C-23.0242 32.3 -23.8772 33.3 -25.1239 33.5L-27.0924 33.8C-27.2236 33.7 -27.3549 33.7 -27.4861 33.7ZM-42.3811 33.7C-42.4467 33.7 -42.5123 33.7 -42.5779 33.7L-44.0215 33.6H-47.1711H-47.9585C-49.2052 33.6 -50.3207 32.8 -50.3863 31.7C-50.4519 30.6 -49.4677 29.7 -48.221 29.6H-47.368C-47.3023 29.6 -47.3023 29.6 -47.2367 29.6H-43.9559C-43.8903 29.6 -43.8247 29.6 -43.8247 29.6L-42.2499 29.7C-41.0031 29.8 -40.0189 30.7 -40.1501 31.8C-40.1501 32.9 -41.2 33.7 -42.3811 33.7ZM496.003 33.7C494.953 33.7 494.035 33.1 493.772 32.2C493.444 31.1 494.232 30 495.478 29.8L498.3 29.2C498.431 29.2 498.628 29.2 498.759 29.1L501.581 29C502.893 29 503.877 29.8 503.943 30.9C504.009 32 503.024 32.9 501.712 33L499.087 33.1L496.528 33.6C496.397 33.7 496.2 33.7 496.003 33.7ZM-178.076 33.7H-178.142H-178.864C-178.995 33.7 -179.126 33.7 -179.192 33.7L-182.145 33.2L-183.457 33.3C-184.704 33.4 -185.819 32.6 -185.95 31.5C-186.081 30.4 -185.163 29.4 -183.916 29.3L-182.276 29.1C-182.013 29.1 -181.816 29.1 -181.554 29.1L-178.47 29.6H-177.945C-176.698 29.6 -175.714 30.6 -175.78 31.7C-175.845 32.9 -176.895 33.7 -178.076 33.7ZM-198.549 33.7C-198.746 33.7 -198.877 33.7 -199.074 33.6L-201.239 33.2C-202.486 33 -203.207 31.9 -202.945 30.8C-202.683 29.7 -201.436 29.1 -200.189 29.3L-198.352 29.7L-195.202 29.5C-193.955 29.4 -192.84 30.2 -192.709 31.3C-192.578 32.4 -193.562 33.4 -194.809 33.5L-198.352 33.7C-198.417 33.7 -198.483 33.7 -198.549 33.7ZM411.095 33.7C409.914 33.7 408.864 32.9 408.799 31.8C408.733 30.7 409.652 29.7 410.964 29.7L413.13 29.6L416.345 29.3C416.41 29.3 416.476 29.3 416.542 29.3H416.804C418.051 29.2 419.101 30.1 419.166 31.3C419.166 32.4 418.182 33.3 416.935 33.3H416.804L413.589 33.6L411.358 33.7C411.227 33.7 411.161 33.7 411.095 33.7ZM600.859 33.7C600.727 33.7 600.596 33.7 600.465 33.7L597.643 33.3C596.397 33.1 595.544 32.1 595.741 31C595.937 29.9 597.119 29.2 598.365 29.3L600.924 29.7L603.483 29.5C604.796 29.4 605.846 30.2 605.977 31.3C606.108 32.4 605.124 33.4 603.877 33.5L601.055 33.7C600.99 33.7 600.924 33.7 600.859 33.7ZM768.837 33.7C768.772 33.7 768.706 33.7 768.64 33.7L767.787 33.6C766.541 33.5 765.622 32.5 765.688 31.4C765.819 30.3 766.869 29.5 768.181 29.6L768.837 29.7L773.562 29.5C774.808 29.4 775.924 30.3 775.924 31.4C775.989 32.5 775.005 33.4 773.759 33.5L768.903 33.7H768.837ZM688.588 33.7C688.391 33.7 688.129 33.7 687.932 33.6L686.292 33.2L683.47 33.5C683.404 33.5 683.339 33.5 683.273 33.5H683.076C681.83 33.6 680.78 32.7 680.714 31.6C680.648 30.5 681.698 29.6 682.945 29.5H683.076L686.292 29.2C686.62 29.2 686.882 29.2 687.21 29.3L689.31 29.9C690.491 30.2 691.213 31.3 690.819 32.4C690.491 33.1 689.572 33.7 688.588 33.7ZM314.639 33.7L311.227 33.6L308.733 33.5C307.487 33.4 306.503 32.5 306.634 31.4C306.699 30.3 307.815 29.4 309.062 29.5L311.424 29.6L314.639 29.7C315.886 29.7 316.87 30.6 316.87 31.7C316.87 32.8 315.886 33.7 314.639 33.7ZM943.509 33.7C943.377 33.7 943.246 33.7 943.049 33.7L940.293 33.2L938.522 33.6C937.275 33.9 936.028 33.2 935.7 32.2C935.372 31.1 936.094 30 937.341 29.8L939.637 29.3C939.965 29.2 940.294 29.2 940.687 29.3L943.968 29.9C945.215 30.1 946.002 31.2 945.805 32.2C945.543 33 944.559 33.7 943.509 33.7ZM74.5477 33.7C74.5477 33.7 74.4821 33.7 74.5477 33.7H71.2013C71.0701 33.7 71.0045 33.7 70.8732 33.7H70.742C69.4953 33.5 68.6422 32.5 68.8391 31.4C69.0359 30.3 70.217 29.6 71.4638 29.7H74.4165L76.4506 29.4C77.6974 29.2 78.8784 30 79.0753 31.1C79.2722 32.2 78.4191 33.2 77.1724 33.4L74.9414 33.7C74.7446 33.6 74.679 33.7 74.5477 33.7ZM-110.032 33.6H-110.097L-115.806 33.4C-117.053 33.3 -118.037 32.4 -117.971 31.3C-117.906 30.2 -116.79 29.4 -115.609 29.4L-109.901 29.6C-108.654 29.6 -107.67 30.6 -107.735 31.7C-107.801 32.8 -108.851 33.6 -110.032 33.6ZM2.89439 33.6C1.71329 33.6 0.729034 32.8 0.597809 31.8C0.466568 30.7 1.38519 29.7 2.69753 29.6L8.40617 29.2C9.65289 29.1 10.7684 29.9 10.8996 31C11.0308 32.1 10.0466 33.1 8.79988 33.2L3.09123 33.6C3.02562 33.6 2.96001 33.6 2.89439 33.6ZM648.89 33.6C647.775 33.6 646.79 32.9 646.659 31.9C646.462 30.8 647.315 29.8 648.562 29.6L653.221 29C653.418 29 653.68 29 653.877 29L654.861 29.1C656.108 29.3 656.961 30.3 656.83 31.4C656.633 32.5 655.517 33.3 654.271 33.1L653.615 33L649.349 33.6C649.153 33.6 649.021 33.6 648.89 33.6ZM617.328 33.6C617.263 33.6 617.132 33.6 617.066 33.6L614.835 33.4C613.588 33.3 612.67 32.3 612.801 31.2C612.932 30.1 614.113 29.3 615.294 29.4L617.197 29.6L620.15 29.1C620.478 29.1 620.74 29.1 621.069 29.1H621.2C622.447 29.3 623.234 30.4 622.906 31.5C622.643 32.4 621.659 33.1 620.609 33.1L617.657 33.6C617.591 33.6 617.46 33.6 617.328 33.6ZM110.703 33.6C110.637 33.6 110.637 33.6 110.703 33.6L107.356 33.5C107.29 33.5 107.225 33.5 107.094 33.5L104.731 33.2C103.485 33 102.632 32 102.763 30.9C102.96 29.8 104.075 29.1 105.322 29.2L107.553 29.5L110.703 29.6C111.884 29.6 112.868 30.4 112.999 31.4C113.13 32.5 112.212 33.5 110.965 33.6C110.899 33.6 110.768 33.6 110.703 33.6ZM42.7237 33.6C42.6581 33.6 42.5924 33.6 42.5924 33.6L41.5426 33.5L38.4586 33.4L37.2119 33.5C35.9651 33.6 34.8497 32.8 34.7184 31.7C34.5872 30.6 35.5714 29.6 36.8182 29.5L38.1305 29.4C38.1961 29.4 38.2617 29.4 38.393 29.4L42.8549 29.5C44.1016 29.6 45.0859 30.5 45.0203 31.6C44.889 32.8 43.9048 33.6 42.7237 33.6ZM245.545 33.6C245.479 33.6 245.348 33.6 245.282 33.6L242.329 33.3L241.476 33.4C240.23 33.6 239.049 32.8 238.852 31.7C238.655 30.6 239.508 29.6 240.755 29.4L241.87 29.2C242.067 29.2 242.329 29.2 242.526 29.2L245.61 29.5H246.66C247.907 29.4 249.022 30.3 249.088 31.4C249.154 32.5 248.169 33.4 246.923 33.5L245.676 33.6C245.61 33.6 245.61 33.6 245.545 33.6ZM960.635 33.6C960.569 33.6 960.569 33.6 960.503 33.6H959.913C959.847 33.6 959.847 33.6 959.782 33.6L956.632 33.3H954.992C953.745 33.3 952.695 32.4 952.695 31.3C952.695 30.2 953.679 29.3 954.992 29.3H956.763C956.829 29.3 956.96 29.3 957.026 29.3L960.832 29.6C962.078 29.7 963.062 30.6 962.997 31.7C962.8 32.7 961.816 33.6 960.635 33.6ZM450.793 33.5C450.597 33.5 450.465 33.5 450.269 33.5L449.153 33.3L446.332 33.2L445.544 33.3C444.297 33.5 443.116 32.8 442.919 31.7C442.723 30.6 443.51 29.6 444.757 29.4L445.807 29.2C445.938 29.2 446.135 29.2 446.266 29.2L449.547 29.3C449.678 29.3 449.809 29.3 449.94 29.3L451.253 29.6C452.5 29.8 453.287 30.9 452.959 32C452.762 32.9 451.843 33.5 450.793 33.5ZM343.051 33.5C342.001 33.5 341.017 32.8 340.82 31.9C340.557 30.8 341.345 29.8 342.592 29.5L343.707 29.3C343.838 29.3 343.904 29.3 344.035 29.3L347.316 29.1C347.447 29.1 347.644 29.1 347.775 29.1L349.022 29.2C350.269 29.3 351.187 30.3 350.991 31.4C350.794 32.5 349.678 33.3 348.432 33.1L347.382 33L344.495 33.2L343.51 33.4C343.313 33.5 343.182 33.5 343.051 33.5ZM750.99 33.5C749.874 33.5 748.89 32.8 748.759 31.8C748.562 30.7 749.48 29.7 750.727 29.5L752.105 29.3C752.236 29.3 752.302 29.3 752.433 29.3H755.714C755.845 29.3 755.911 29.3 756.042 29.3L757.026 29.4C758.273 29.6 759.126 30.6 758.995 31.7C758.798 32.8 757.682 33.5 756.436 33.4L755.583 33.3H752.63L751.383 33.4C751.186 33.5 751.055 33.5 750.99 33.5ZM-234.703 33.5C-235.95 33.5 -237 32.6 -237 31.5C-237 30.4 -236.016 29.5 -234.769 29.5L-229.06 29.4C-227.814 29.3 -226.764 30.2 -226.698 31.3C-226.633 32.4 -227.682 33.3 -228.929 33.4L-234.703 33.5ZM531.764 33.5C531.633 33.5 531.568 33.5 531.436 33.5L529.73 33.3C528.484 33.1 527.631 32.1 527.762 31C527.959 29.9 529.074 29.1 530.321 29.3L531.83 29.5L535.57 29.4C536.817 29.3 537.932 30.2 537.998 31.3C538.064 32.4 537.145 33.4 535.833 33.4H535.111L531.764 33.5ZM461.948 33.5C460.833 33.5 459.914 32.8 459.717 31.8C459.521 30.7 460.308 29.7 461.555 29.5L462.211 29.4C462.276 29.4 462.408 29.4 462.473 29.4L465.754 29.2C465.82 29.2 465.951 29.2 466.017 29.2L467.788 29.3C469.035 29.3 470.019 30.3 469.954 31.4C469.888 32.5 468.838 33.3 467.591 33.3L465.951 33.2L462.932 33.4L462.408 33.5C462.211 33.4 462.079 33.5 461.948 33.5ZM195.742 33.4C195.61 33.4 195.479 33.4 195.414 33.4L192.789 33.1L190.164 33.2H190.099C188.852 33.2 187.868 32.4 187.802 31.3C187.736 30.2 188.721 29.3 190.033 29.2L192.92 29.1C193.051 29.1 193.183 29.1 193.379 29.1L196.201 29.5C197.448 29.7 198.301 30.7 198.104 31.8C197.841 32.7 196.857 33.4 195.742 33.4ZM59.7184 33.4C59.6528 33.4 59.6528 33.4 59.5872 33.4L57.9467 33.3L53.9441 33C52.6974 33 51.6475 32.1 51.7132 31C51.7132 29.9 52.763 29 54.0097 29H54.0753H54.8627C54.9283 29 54.9284 29 54.994 29L59.8496 29.3C61.0963 29.4 62.0806 30.3 62.015 31.4C61.8837 32.6 60.8995 33.4 59.7184 33.4ZM-129.454 33.4C-129.52 33.4 -129.586 33.4 -129.651 33.4L-132.67 33.2C-133.851 33.3 -134.966 32.6 -135.163 31.6C-135.425 30.5 -134.572 29.5 -133.391 29.2H-133.26C-133.063 29.2 -132.866 29.2 -132.67 29.2L-129.52 29.4H-127.355H-127.289C-126.042 29.4 -125.058 30.3 -124.992 31.4C-124.992 32.5 -125.977 33.4 -127.223 33.4H-129.454C-129.389 33.4 -129.454 33.4 -129.454 33.4ZM327.762 33.4H326.056C324.81 33.4 323.76 32.5 323.76 31.4C323.76 30.3 324.81 29.4 326.056 29.4H327.697L330.846 29.1C330.978 29.1 331.109 29.1 331.24 29.1H331.896C333.143 29.2 334.127 30.1 333.996 31.2C333.865 32.3 332.88 33.1 331.568 33.1H331.109L327.959 33.3C327.894 33.4 327.828 33.4 327.762 33.4ZM-81.7511 33.4C-82.8009 33.4 -83.7852 32.7 -83.982 31.8C-84.2445 30.7 -83.4571 29.7 -82.2104 29.4L-80.57 29.1C-80.4387 29.1 -80.2419 29.1 -80.1106 29.1H-76.8298C-76.7642 29.1 -76.633 29.1 -76.5674 29.1L-75.8456 29.2C-74.5988 29.3 -73.6802 30.3 -73.8771 31.4C-74.0083 32.5 -75.1894 33.3 -76.4361 33.1L-77.0267 33H-79.9794L-81.423 33.3C-81.4886 33.3 -81.6198 33.4 -81.7511 33.4ZM890.753 33.2H890.687L887.603 33.1H887.538C886.291 33.3 885.11 32.5 884.913 31.4C884.716 30.3 885.569 29.3 886.816 29.1H887.144C887.275 29.1 887.472 29.1 887.603 29.1L890.819 29.2L892.853 29.1C894.165 29 895.149 29.9 895.215 31C895.281 32.1 894.296 33 893.049 33.1L890.95 33.2C890.819 33.2 890.753 33.2 890.753 33.2ZM377.172 33.2C375.991 33.2 374.941 32.4 374.875 31.3C374.809 30.2 375.794 29.3 377.04 29.2L380.256 29.1C380.321 29.1 380.387 29.1 380.387 29.1H382.88C384.127 29.1 385.177 30 385.111 31.1C385.111 32.2 384.061 33.1 382.749 33.1H380.321L377.172 33.2C377.172 33.2 377.237 33.2 377.172 33.2ZM807.814 33.1C807.814 33.1 807.748 33.1 807.814 33.1L804.992 33H802.105C800.858 33 799.808 32.1 799.808 31C799.808 29.9 800.793 29 802.039 29H804.992L807.814 29.1C809.06 29.1 810.044 30 810.044 31.1C810.044 32.2 809.06 33.1 807.814 33.1Z" fill="#FB73BE"/>
</g>
</svg>
